<?xml version="1.0" encoding="UTF-8"?>
<svg width="24px" height="24px" viewBox="0 0 24 24" version="1.1" xmlns="http://www.w3.org/2000/svg" xmlns:xlink="http://www.w3.org/1999/xlink">
    <!-- Generator: Sketch 49.3 (51167) - http://www.bohemiancoding.com/sketch -->
    <title>Icons/social/facebook/color</title>
    <desc>Created with Sketch.</desc>
    <defs></defs>
    <g id="Icons/social/facebook/color" stroke="none" stroke-width="1" fill="none" fill-rule="evenodd">
        <g id="Page-1">
            <path d="M21,24 L3,24 C1.344,24 0,22.656 0,21 L0,3 C0,1.344 1.344,0 3,0 L21,0 C22.656,0 24,1.344 24,3 L24,21 C24,22.656 22.656,24 21,24 Z" id="Shape" fill="#3C5A99" fill-rule="nonzero"></path>
            <path d="M16.4911701,23.990597 L16.4911701,14.7349254 L19.598006,14.7349254 L20.0631403,11.1277612 L16.4911701,11.1277612 L16.4911701,8.82474627 C16.4911701,7.78038806 16.7811403,7.06871642 18.2788119,7.06871642 L20.1889612,7.0678209 L20.1889612,3.84161194 C19.8585134,3.79773134 18.7246925,3.69949254 17.4055881,3.69949254 C14.6515881,3.69949254 12.7662448,5.38047761 12.7662448,8.46761194 L12.7662448,11.1277612 L9.65152836,11.1277612 L9.65152836,14.7349254 L12.7662448,14.7349254 L12.7662448,23.990597 L16.4911701,23.990597 Z" id="Fill-4" fill="#FEFEFE"></path>
        </g>
    </g>
</svg>