<?xml version="1.0" encoding="UTF-8"?>
<svg width="24px" height="24px" viewBox="0 0 24 24" version="1.1" xmlns="http://www.w3.org/2000/svg" xmlns:xlink="http://www.w3.org/1999/xlink">
    <!-- Generator: Sketch 49.3 (51167) - http://www.bohemiancoding.com/sketch -->
    <title>Icons/social/twitter/color</title>
    <desc>Created with Sketch.</desc>
    <defs></defs>
    <g id="Icons/social/twitter/color" stroke="none" stroke-width="1" fill="none" fill-rule="evenodd">
        <g id="Twitter_Social_Icon_Rounded_Square_Color" fill-rule="nonzero">
            <g id="Dark_Blue" fill="#1DA1F2">
                <path d="M21,24 L3,24 C1.344,24 0,22.656 0,21 L0,3 C0,1.344 1.344,0 3,0 L21,0 C22.656,0 24,1.344 24,3 L24,21 C24,22.656 22.656,24 21,24 Z" id="Shape"></path>
            </g>
            <g id="Logo__x2014__FIXED" transform="translate(4.500000, 5.880000)" fill="#FFFFFF">
                <path d="M4.716,12.216 C10.374,12.216 13.47,7.524 13.47,3.462 C13.47,3.33 13.47,3.198 13.464,3.066 C14.064,2.634 14.586,2.088 15,1.47 C14.448,1.716 13.854,1.878 13.23,1.956 C13.866,1.578 14.352,0.972 14.586,0.252 C13.992,0.606 13.332,0.858 12.63,0.996 C12.066,0.396 11.268,0.024 10.386,0.024 C8.688,0.024 7.308,1.404 7.308,3.102 C7.308,3.342 7.338,3.576 7.386,3.804 C4.83,3.678 2.562,2.448 1.044,0.588 C0.78,1.044 0.63,1.572 0.63,2.136 C0.63,3.204 1.176,4.146 1.998,4.698 C1.494,4.68 1.02,4.542 0.606,4.314 C0.606,4.326 0.606,4.338 0.606,4.356 C0.606,5.844 1.668,7.092 3.072,7.374 C2.814,7.446 2.544,7.482 2.262,7.482 C2.064,7.482 1.872,7.464 1.686,7.428 C2.076,8.652 3.216,9.54 4.56,9.564 C3.504,10.392 2.178,10.884 0.738,10.884 C0.492,10.884 0.246,10.872 0.006,10.842 C1.362,11.706 2.982,12.216 4.716,12.216" id="Shape"></path>
            </g>
        </g>
    </g>
</svg>